<svg width="22" height="21" viewBox="0 0 22 21" fill="none" xmlns="http://www.w3.org/2000/svg">
<path d="M18.8 2.25H3.8C3.37813 2.25 3.05 2.625 3.05 3V18C3.05 18.4219 3.37813 18.75 3.8 18.75H18.8C19.175 18.75 19.55 18.4219 19.55 18V3C19.55 2.625 19.175 2.25 18.8 2.25ZM21.8 3V18C21.8 19.6875 20.4406 21 18.8 21H3.8C2.1125 21 0.8 19.6875 0.8 18V3C0.8 1.35938 2.1125 0 3.8 0H18.8C20.4406 0 21.8 1.35938 21.8 3ZM8.3 5.25H15.3781C16.0344 5.25 16.5031 5.76562 16.5031 6.375V13.875C16.5031 14.5312 16.0344 15 15.3781 15C14.7688 15 14.2531 14.5312 14.2531 13.875V9.09375L7.925 15.4219C7.50313 15.8906 6.8 15.8906 6.37813 15.4219C5.90938 15 5.90938 14.2969 6.37813 13.8281L12.7063 7.5H8.3C7.64375 7.5 7.175 7.03125 7.175 6.375C7.175 5.76562 7.64375 5.25 8.3 5.25Z" fill="white"/>
</svg>
